<?xml version="1.0" standalone="no"?><svg xmlns="http://www.w3.org/2000/svg" viewBox="0 0 1440 320"><path fill="#14C2A3" fill-opacity="0.5" d="M0,192L36.9,0L73.8,320L110.8,96L147.7,224L184.6,160L221.5,256L258.5,288L295.4,256L332.3,32L369.2,224L406.2,0L443.1,288L480,0L516.9,128L553.8,192L590.8,128L627.7,32L664.6,320L701.5,192L738.5,160L775.4,288L812.3,32L849.2,288L886.2,32L923.1,128L960,192L996.9,32L1033.8,256L1070.8,96L1107.7,192L1144.6,320L1181.5,96L1218.5,128L1255.4,32L1292.3,320L1329.2,64L1366.2,160L1403.1,288L1440,224L1440,320L1403.1,320L1366.2,320L1329.2,320L1292.3,320L1255.4,320L1218.5,320L1181.5,320L1144.6,320L1107.7,320L1070.8,320L1033.8,320L996.9,320L960,320L923.1,320L886.2,320L849.2,320L812.3,320L775.4,320L738.5,320L701.5,320L664.6,320L627.7,320L590.8,320L553.8,320L516.9,320L480,320L443.1,320L406.2,320L369.2,320L332.3,320L295.4,320L258.5,320L221.5,320L184.6,320L147.7,320L110.8,320L73.8,320L36.9,320L0,320Z"></path></svg>